# xmcd
#
# Track frame offsets:
#	150
#	20605
#	37030
#	54318
#	76778
#	100443
#	120168
#	144273
#	164193
#
# Disc length: 2578 seconds
#
# Revision: 0
# Processed by: cddbd v1.5.2PL0 Copyright (c) Steve Scherf et al.
# Submitted via: audiograbber 1.83.01
#
DISCID=6e0a1009
DTITLE=Kitaro - Tunhuang (Silk Road III)
DYEAR=1983
DGENRE=Electronic
TTITLE0=Fushin (Lord Of The Wind)
TTITLE1=Shinkiro (Fata Morgana)
TTITLE2=Junrei No Tabi (Sacred Journey I)
TTITLE3=Suna No Kami (Lord Of The Sand)
TTITLE4=Tonko Kara No Omoi (Tunhuang)
TTITLE5=Hisho (Free Flight)
TTITLE6=Mandala (Mandala)
TTITLE7=Tao (Tao)
TTITLE8=Junrei No Tabi II (Sacred Journey II)
EXTD=
EXTT0=
EXTT1=
EXTT2=
EXTT3=
EXTT4=
EXTT5=
EXTT6=
EXTT7=
EXTT8=
PLAYORDER=
